<?xml version="1.0" standalone="no"?>
<!DOCTYPE svg PUBLIC "-//W3C//DTD SVG 20010904//EN"
 "http://www.w3.org/TR/2001/REC-SVG-20010904/DTD/svg10.dtd">
<svg version="1.0" xmlns="http://www.w3.org/2000/svg"
 width="512.000000pt" height="512.000000pt" viewBox="0 0 512.000000 512.000000"
 preserveAspectRatio="xMidYMid meet">

<g transform="translate(0.000000,512.000000) scale(0.100000,-0.100000)"
fill="#000000" stroke="none">
<path d="M265 4935 l-25 -24 0 -491 0 -491 -40 -239 c-22 -131 -40 -248 -40
-260 0 -11 11 -32 25 -45 l24 -25 675 0 675 0 -53 -78 c-231 -336 -288 -770
-151 -1152 109 -301 333 -559 614 -704 421 -217 912 -189 1309 77 l82 55 0
-234 0 -235 25 -24 c22 -23 32 -25 120 -25 l95 0 0 -415 0 -416 25 -24 24 -25
511 0 511 0 24 25 25 24 0 416 0 415 95 0 c88 0 98 2 120 25 l25 24 0 311 0
311 -25 24 -24 25 -269 0 c-340 0 -315 13 -322 -168 -5 -141 -12 -160 -74
-206 -39 -29 -133 -29 -172 0 -62 46 -69 65 -74 206 -7 177 6 168 -245 168
l-193 0 55 82 c110 165 180 342 207 529 103 701 -377 1350 -1076 1453 -310 46
-615 -20 -883 -191 -38 -25 -80 -54 -92 -66 -13 -11 -25 -19 -27 -16 -2 2 -18
88 -35 191 l-31 187 0 491 0 491 -25 24 -24 25 -671 0 -671 0 -24 -25z m1255
-535 l0 -400 -560 0 -560 0 0 400 0 400 560 0 560 0 0 -400z m15 -582 c9 -42
45 -265 45 -282 0 -15 -52 -16 -620 -16 -568 0 -620 1 -620 16 0 17 36 240 45
282 l5 22 570 0 570 0 5 -22z m1200 -153 c467 -75 826 -424 927 -900 16 -77
16 -333 0 -410 -98 -461 -436 -799 -897 -897 -77 -16 -333 -16 -410 0 -348 74
-626 281 -783 580 -173 331 -175 697 -7 1032 214 427 696 672 1170 595z m1107
-2147 c9 -135 60 -219 170 -279 58 -31 70 -34 148 -34 78 0 90 3 148 34 109
59 161 145 170 278 l5 83 158 0 159 0 0 -200 0 -200 -95 0 c-88 0 -98 -2 -120
-25 l-25 -24 0 -416 0 -415 -400 0 -400 0 0 415 0 416 -25 24 c-22 23 -32 25
-120 25 l-95 0 0 200 0 200 159 0 158 0 5 -82z"/>
<path d="M560 4560 l0 -80 400 0 400 0 0 80 0 80 -400 0 -400 0 0 -80z"/>
<path d="M560 4240 l0 -80 400 0 400 0 0 80 0 80 -400 0 -400 0 0 -80z"/>
<path d="M2663 2858 l-423 -422 -103 102 c-143 141 -131 142 -314 -41 -129
-128 -143 -146 -143 -177 0 -32 21 -55 263 -297 242 -243 265 -263 297 -263
33 0 71 36 617 583 546 545 583 584 583 617 0 31 -14 48 -143 177 -128 128
-146 143 -177 143 -32 0 -64 -30 -457 -422z m522 162 l60 -60 -503 -503 -502
-502 -182 182 -183 183 62 62 62 62 104 -102 c91 -89 109 -102 138 -102 31 0
66 33 454 420 231 231 422 420 425 420 3 0 32 -27 65 -60z"/>
<path d="M4010 4946 c-279 -60 -505 -251 -598 -508 -108 -300 -39 -620 184
-842 359 -359 956 -296 1234 131 89 136 125 259 125 433 0 174 -36 298 -124
432 -113 173 -274 288 -481 345 -78 21 -260 26 -340 9z m285 -161 c113 -23
227 -87 316 -176 251 -249 251 -647 -1 -899 -252 -252 -650 -252 -899 -1 -254
254 -254 648 -1 901 156 156 369 220 585 175z"/>
<path d="M4080 4418 l0 -223 -147 -147 -148 -148 58 -58 57 -57 170 171 170
170 0 257 0 257 -80 0 -80 0 0 -222z"/>
<path d="M2320 4545 c-136 -17 -269 -47 -400 -91 -57 -19 -105 -36 -107 -38
-4 -3 47 -129 56 -138 3 -4 56 9 116 28 356 116 767 123 1093 19 42 -14 82
-25 87 -25 10 0 55 113 55 137 0 14 -122 53 -240 78 -203 44 -457 55 -660 30z"/>
<path d="M645 3136 c-107 -350 -110 -765 -9 -1122 36 -128 30 -123 114 -95 38
13 70 28 70 34 0 5 -11 46 -24 91 -32 106 -54 214 -66 328 -25 234 -2 481 66
704 13 45 24 86 24 91 0 9 -114 53 -137 53 -7 0 -24 -38 -38 -84z"/>
<path d="M4360 3197 c-30 -11 -57 -22 -59 -24 -2 -1 8 -42 22 -90 101 -342
102 -706 1 -1039 -13 -45 -24 -86 -24 -90 0 -9 118 -54 139 -54 25 0 92 286
111 469 25 249 -2 524 -76 769 -28 92 -27 92 -114 59z"/>
<path d="M560 1550 c-206 -115 -380 -216 -387 -226 -10 -14 -13 -134 -13 -566
l0 -549 25 -24 24 -25 751 0 751 0 24 25 25 24 0 549 c0 509 -1 551 -17 570
-26 30 -758 432 -785 432 -13 -1 -192 -95 -398 -210z m723 -140 l316 -175 1
-457 0 -458 -160 0 -160 0 0 375 0 376 -25 24 -24 25 -271 0 -271 0 -24 -25
-25 -24 0 -376 0 -375 -160 0 -160 0 0 458 1 457 317 176 c174 97 320 176 323
175 3 0 148 -80 322 -176z m-163 -770 l0 -320 -160 0 -160 0 0 320 0 320 160
0 160 0 0 -320z"/>
<path d="M3310 881 c-293 -132 -621 -184 -938 -151 -112 12 -273 44 -349 71
-31 10 -61 19 -67 19 -7 0 -23 -32 -36 -70 -29 -84 -35 -78 98 -115 444 -123
924 -90 1340 92 56 25 104 49 107 54 6 8 -56 139 -65 138 -3 0 -43 -17 -90
-38z"/>
</g>
</svg>
